<mxfile host="app.diagrams.net" agent="Mozilla/5.0 (Windows NT 10.0; Win64; x64) AppleWebKit/537.36 (KHTML, like Gecko) Chrome/132.0.0.0 Safari/537.36" version="26.0.10">
  <diagram id="Ht1M8jgEwFfnCIfOTk4-" name="Page-1">
    <mxGraphModel dx="783" dy="793" grid="1" gridSize="10" guides="1" tooltips="1" connect="1" arrows="1" fold="1" page="1" pageScale="1" pageWidth="1169" pageHeight="827" background="#FFFFFF" math="0" shadow="0">
      <root>
        <mxCell id="0" />
        <mxCell id="1" parent="0" />
        <mxCell id="UEzPUAAOIrF-is8g5C7q-208" value="" style="rounded=0;whiteSpace=wrap;html=1;labelBackgroundColor=#ffffff;fillColor=#ffffff;gradientColor=none;container=1;pointerEvents=0;collapsible=0;recursiveResize=0;" parent="1" vertex="1">
          <mxGeometry x="224.5" y="400" width="610" height="300" as="geometry" />
        </mxCell>
        <mxCell id="UEzPUAAOIrF-is8g5C7q-207" value="" style="rounded=0;whiteSpace=wrap;html=1;labelBackgroundColor=#ffffff;fillColor=#ffffff;gradientColor=none;container=0;pointerEvents=0;collapsible=0;recursiveResize=0;" parent="1" vertex="1">
          <mxGeometry x="234.5" y="410" width="610" height="300" as="geometry" />
        </mxCell>
        <mxCell id="UEzPUAAOIrF-is8g5C7q-206" value="AWS Cloud" style="points=[[0,0],[0.25,0],[0.5,0],[0.75,0],[1,0],[1,0.25],[1,0.5],[1,0.75],[1,1],[0.75,1],[0.5,1],[0.25,1],[0,1],[0,0.75],[0,0.5],[0,0.25]];outlineConnect=0;gradientColor=none;html=1;whiteSpace=wrap;fontSize=12;fontStyle=0;shape=mxgraph.aws4.group;grIcon=mxgraph.aws4.group_aws_cloud_alt;strokeColor=#232F3E;fillColor=#ffffff;verticalAlign=top;align=left;spacingLeft=30;fontColor=#232F3E;dashed=0;labelBackgroundColor=#ffffff;container=1;pointerEvents=0;collapsible=0;recursiveResize=0;" parent="1" vertex="1">
          <mxGeometry x="244.5" y="420" width="610" height="300" as="geometry" />
        </mxCell>
        <mxCell id="jMv3wiVejtYcK5WS_Cf9-27" style="edgeStyle=orthogonalEdgeStyle;shape=connector;rounded=0;orthogonalLoop=1;jettySize=auto;html=1;strokeColor=#808080;strokeWidth=2;align=center;verticalAlign=middle;fontFamily=Helvetica;fontSize=11;fontColor=default;labelBackgroundColor=default;startArrow=none;startFill=0;endArrow=open;endFill=0;" parent="UEzPUAAOIrF-is8g5C7q-206" source="jMv3wiVejtYcK5WS_Cf9-17" target="jMv3wiVejtYcK5WS_Cf9-18" edge="1">
          <mxGeometry relative="1" as="geometry" />
        </mxCell>
        <mxCell id="jMv3wiVejtYcK5WS_Cf9-17" value="Automation ExecutionRole" style="sketch=0;outlineConnect=0;fontColor=#232F3E;gradientColor=none;fillColor=#DD344C;strokeColor=none;dashed=0;verticalLabelPosition=middle;verticalAlign=middle;align=left;html=1;fontSize=9;fontStyle=0;aspect=fixed;pointerEvents=1;shape=mxgraph.aws4.role;hachureGap=4;jiggle=2;curveFitting=1;fontFamily=Helvetica;labelPosition=right;" parent="UEzPUAAOIrF-is8g5C7q-206" vertex="1">
          <mxGeometry x="397.92" y="19" width="53.18" height="30" as="geometry" />
        </mxCell>
        <mxCell id="jMv3wiVejtYcK5WS_Cf9-28" style="edgeStyle=orthogonalEdgeStyle;shape=connector;rounded=0;orthogonalLoop=1;jettySize=auto;html=1;strokeColor=#808080;strokeWidth=2;align=center;verticalAlign=middle;fontFamily=Helvetica;fontSize=11;fontColor=default;labelBackgroundColor=default;startArrow=none;startFill=0;endArrow=open;endFill=0;" parent="UEzPUAAOIrF-is8g5C7q-206" source="jMv3wiVejtYcK5WS_Cf9-18" target="jMv3wiVejtYcK5WS_Cf9-15" edge="1">
          <mxGeometry relative="1" as="geometry" />
        </mxCell>
        <mxCell id="jMv3wiVejtYcK5WS_Cf9-18" value="Automation to start&lt;div style=&quot;font-size: 9px;&quot;&gt;PatchBaseLine document&lt;/div&gt;" style="sketch=0;outlineConnect=0;fontColor=#232F3E;gradientColor=none;fillColor=#E7157B;strokeColor=none;dashed=0;verticalLabelPosition=middle;verticalAlign=middle;align=left;html=1;fontSize=9;fontStyle=0;aspect=fixed;pointerEvents=1;shape=mxgraph.aws4.automation;hachureGap=4;jiggle=2;curveFitting=1;fontFamily=Helvetica;labelPosition=right;" parent="UEzPUAAOIrF-is8g5C7q-206" vertex="1">
          <mxGeometry x="399.51000000000005" y="80" width="50" height="50" as="geometry" />
        </mxCell>
        <mxCell id="jMv3wiVejtYcK5WS_Cf9-15" value="AWS-RunPatchBaseline" style="sketch=0;outlineConnect=0;fontColor=#232F3E;gradientColor=none;fillColor=#E7157B;strokeColor=none;dashed=0;verticalLabelPosition=middle;verticalAlign=middle;align=left;html=1;fontSize=9;fontStyle=0;aspect=fixed;pointerEvents=1;shape=mxgraph.aws4.run_command;hachureGap=4;jiggle=2;curveFitting=1;fontFamily=Helvetica;labelPosition=right;" parent="UEzPUAAOIrF-is8g5C7q-206" vertex="1">
          <mxGeometry x="396.14" y="160" width="56.73" height="40" as="geometry" />
        </mxCell>
        <mxCell id="jMv3wiVejtYcK5WS_Cf9-14" value="Patch Manager" style="sketch=0;outlineConnect=0;fontColor=#232F3E;gradientColor=none;fillColor=#E7157B;strokeColor=none;dashed=0;verticalLabelPosition=middle;verticalAlign=middle;align=left;html=1;fontSize=9;fontStyle=0;aspect=fixed;pointerEvents=1;shape=mxgraph.aws4.patch_manager;hachureGap=4;jiggle=2;curveFitting=1;fontFamily=Helvetica;labelPosition=right;" parent="UEzPUAAOIrF-is8g5C7q-206" vertex="1">
          <mxGeometry x="165.5" y="230" width="60" height="60" as="geometry" />
        </mxCell>
        <mxCell id="jMv3wiVejtYcK5WS_Cf9-12" value="Resource&lt;div style=&quot;font-size: 9px;&quot;&gt;Data Sync&lt;/div&gt;" style="html=1;verticalLabelPosition=bottom;align=center;labelBackgroundColor=#ffffff;verticalAlign=top;strokeWidth=2;strokeColor=#000000;shadow=0;dashed=0;shape=mxgraph.ios7.icons.data;hachureGap=4;fontFamily=Helvetica;fillColor=default;fontSize=9;" parent="UEzPUAAOIrF-is8g5C7q-206" vertex="1">
          <mxGeometry x="25.5" y="81.25" width="44.5" height="48.75" as="geometry" />
        </mxCell>
        <mxCell id="jMv3wiVejtYcK5WS_Cf9-16" value="State manager" style="sketch=0;outlineConnect=0;fontColor=#232F3E;gradientColor=none;fillColor=#E7157B;strokeColor=none;dashed=0;verticalLabelPosition=middle;verticalAlign=middle;align=left;html=1;fontSize=9;fontStyle=0;aspect=fixed;pointerEvents=1;shape=mxgraph.aws4.state_manager;hachureGap=4;jiggle=2;curveFitting=1;fontFamily=Helvetica;labelPosition=right;" parent="UEzPUAAOIrF-is8g5C7q-206" vertex="1">
          <mxGeometry x="365.5" y="230" width="60" height="60" as="geometry" />
        </mxCell>
        <mxCell id="jMv3wiVejtYcK5WS_Cf9-40" style="edgeStyle=orthogonalEdgeStyle;shape=connector;rounded=0;orthogonalLoop=1;jettySize=auto;html=1;entryX=1.007;entryY=0.702;entryDx=0;entryDy=0;entryPerimeter=0;strokeColor=#808080;strokeWidth=2;align=center;verticalAlign=middle;fontFamily=Helvetica;fontSize=11;fontColor=default;labelBackgroundColor=default;startArrow=open;startFill=0;endArrow=open;endFill=0;" parent="UEzPUAAOIrF-is8g5C7q-206" source="jMv3wiVejtYcK5WS_Cf9-14" target="jMv3wiVejtYcK5WS_Cf9-12" edge="1">
          <mxGeometry relative="1" as="geometry" />
        </mxCell>
        <mxCell id="UEzPUAAOIrF-is8g5C7q-205" value="AWS Cloud" style="points=[[0,0],[0.25,0],[0.5,0],[0.75,0],[1,0],[1,0.25],[1,0.5],[1,0.75],[1,1],[0.75,1],[0.5,1],[0.25,1],[0,1],[0,0.75],[0,0.5],[0,0.25]];outlineConnect=0;gradientColor=none;html=1;whiteSpace=wrap;fontSize=12;fontStyle=0;shape=mxgraph.aws4.group;grIcon=mxgraph.aws4.group_aws_cloud_alt;strokeColor=#232F3E;fillColor=default;verticalAlign=top;align=left;spacingLeft=30;fontColor=#232F3E;dashed=0;labelBackgroundColor=#ffffff;container=1;pointerEvents=0;collapsible=0;recursiveResize=0;" parent="1" vertex="1">
          <mxGeometry x="224.5" y="40.5" width="616" height="330" as="geometry" />
        </mxCell>
        <mxCell id="jMv3wiVejtYcK5WS_Cf9-2" value="&lt;font style=&quot;font-size: 9px;&quot; face=&quot;Helvetica&quot;&gt;Amazon QuickSight&lt;/font&gt;" style="sketch=0;points=[[0,0,0],[0.25,0,0],[0.5,0,0],[0.75,0,0],[1,0,0],[0,1,0],[0.25,1,0],[0.5,1,0],[0.75,1,0],[1,1,0],[0,0.25,0],[0,0.5,0],[0,0.75,0],[1,0.25,0],[1,0.5,0],[1,0.75,0]];outlineConnect=0;fontColor=default;fillColor=#8C4FFF;strokeColor=#ffffff;dashed=0;verticalLabelPosition=middle;verticalAlign=middle;align=left;html=1;fontSize=12;fontStyle=0;aspect=fixed;shape=mxgraph.aws4.resourceIcon;resIcon=mxgraph.aws4.quicksight;hachureGap=4;jiggle=2;curveFitting=1;fontFamily=Architects Daughter;fontSource=https%3A%2F%2Ffonts.googleapis.com%2Fcss%3Ffamily%3DArchitects%2BDaughter;labelPosition=right;" parent="UEzPUAAOIrF-is8g5C7q-205" vertex="1">
          <mxGeometry x="16" y="39.5" width="50.5" height="50.5" as="geometry" />
        </mxCell>
        <mxCell id="jMv3wiVejtYcK5WS_Cf9-22" style="edgeStyle=orthogonalEdgeStyle;shape=connector;rounded=0;orthogonalLoop=1;jettySize=auto;html=1;strokeColor=#808080;strokeWidth=2;align=center;verticalAlign=middle;fontFamily=Helvetica;fontSize=11;fontColor=default;labelBackgroundColor=default;startArrow=none;startFill=0;endArrow=open;endFill=0;" parent="UEzPUAAOIrF-is8g5C7q-205" source="jMv3wiVejtYcK5WS_Cf9-4" target="jMv3wiVejtYcK5WS_Cf9-5" edge="1">
          <mxGeometry relative="1" as="geometry" />
        </mxCell>
        <mxCell id="jMv3wiVejtYcK5WS_Cf9-4" value="&lt;font style=&quot;font-size: 9px;&quot; face=&quot;Helvetica&quot;&gt;AWS Glue Crawler&lt;/font&gt;" style="sketch=0;points=[[0,0,0],[0.25,0,0],[0.5,0,0],[0.75,0,0],[1,0,0],[0,1,0],[0.25,1,0],[0.5,1,0],[0.75,1,0],[1,1,0],[0,0.25,0],[0,0.5,0],[0,0.75,0],[1,0.25,0],[1,0.5,0],[1,0.75,0]];outlineConnect=0;fontColor=#232F3E;fillColor=#8C4FFF;strokeColor=#ffffff;dashed=0;verticalLabelPosition=middle;verticalAlign=middle;align=left;html=1;fontSize=9;fontStyle=0;aspect=fixed;shape=mxgraph.aws4.resourceIcon;resIcon=mxgraph.aws4.glue;hachureGap=4;jiggle=2;curveFitting=1;fontFamily=Architects Daughter;fontSource=https%3A%2F%2Ffonts.googleapis.com%2Fcss%3Ffamily%3DArchitects%2BDaughter;labelPosition=right;" parent="UEzPUAAOIrF-is8g5C7q-205" vertex="1">
          <mxGeometry x="15" y="199.5" width="50.5" height="50.5" as="geometry" />
        </mxCell>
        <mxCell id="jMv3wiVejtYcK5WS_Cf9-3" value="&lt;font style=&quot;font-size: 9px;&quot; face=&quot;Helvetica&quot;&gt;Amazon Athena&lt;/font&gt;" style="sketch=0;points=[[0,0,0],[0.25,0,0],[0.5,0,0],[0.75,0,0],[1,0,0],[0,1,0],[0.25,1,0],[0.5,1,0],[0.75,1,0],[1,1,0],[0,0.25,0],[0,0.5,0],[0,0.75,0],[1,0.25,0],[1,0.5,0],[1,0.75,0]];outlineConnect=0;fontColor=#232F3E;fillColor=#8C4FFF;strokeColor=#ffffff;dashed=0;verticalLabelPosition=middle;verticalAlign=middle;align=left;html=1;fontSize=12;fontStyle=0;aspect=fixed;shape=mxgraph.aws4.resourceIcon;resIcon=mxgraph.aws4.athena;hachureGap=4;jiggle=2;curveFitting=1;fontFamily=Architects Daughter;fontSource=https%3A%2F%2Ffonts.googleapis.com%2Fcss%3Ffamily%3DArchitects%2BDaughter;labelPosition=right;" parent="UEzPUAAOIrF-is8g5C7q-205" vertex="1">
          <mxGeometry x="15" y="117.5" width="52.5" height="52.5" as="geometry" />
        </mxCell>
        <mxCell id="jMv3wiVejtYcK5WS_Cf9-5" value="&lt;font face=&quot;Helvetica&quot; style=&quot;font-size: 9px;&quot;&gt;S3 Bucket&lt;/font&gt;" style="sketch=0;outlineConnect=0;fontColor=#232F3E;gradientColor=none;fillColor=#7AA116;strokeColor=none;dashed=0;verticalLabelPosition=middle;verticalAlign=middle;align=left;html=1;fontSize=9;fontStyle=0;aspect=fixed;pointerEvents=1;shape=mxgraph.aws4.bucket;hachureGap=4;jiggle=2;curveFitting=1;fontFamily=Architects Daughter;fontSource=https%3A%2F%2Ffonts.googleapis.com%2Fcss%3Ffamily%3DArchitects%2BDaughter;labelPosition=right;" parent="UEzPUAAOIrF-is8g5C7q-205" vertex="1">
          <mxGeometry x="16" y="269.5" width="48.56" height="50.5" as="geometry" />
        </mxCell>
        <mxCell id="jMv3wiVejtYcK5WS_Cf9-23" style="edgeStyle=orthogonalEdgeStyle;shape=connector;rounded=0;orthogonalLoop=1;jettySize=auto;html=1;strokeColor=#808080;strokeWidth=2;align=center;verticalAlign=middle;fontFamily=Helvetica;fontSize=11;fontColor=default;labelBackgroundColor=default;startArrow=none;startFill=0;endArrow=open;endFill=0;" parent="UEzPUAAOIrF-is8g5C7q-205" source="jMv3wiVejtYcK5WS_Cf9-6" target="UEzPUAAOIrF-is8g5C7q-221" edge="1">
          <mxGeometry relative="1" as="geometry" />
        </mxCell>
        <mxCell id="jMv3wiVejtYcK5WS_Cf9-6" value="&lt;font style=&quot;font-size: 9px;&quot;&gt;Cloudwatch&lt;/font&gt;&lt;div style=&quot;font-size: 9px;&quot;&gt;&lt;font style=&quot;font-size: 9px;&quot;&gt;Event Rule&lt;/font&gt;&lt;/div&gt;" style="sketch=0;outlineConnect=0;fontColor=#232F3E;gradientColor=none;fillColor=#E7157B;strokeColor=none;dashed=0;verticalLabelPosition=bottom;verticalAlign=top;align=center;html=1;fontSize=9;fontStyle=0;aspect=fixed;pointerEvents=1;shape=mxgraph.aws4.event_time_based;hachureGap=4;jiggle=2;curveFitting=1;fontFamily=Helvetica;" parent="UEzPUAAOIrF-is8g5C7q-205" vertex="1">
          <mxGeometry x="175.5" y="40.75" width="78" height="78" as="geometry" />
        </mxCell>
        <mxCell id="jMv3wiVejtYcK5WS_Cf9-24" style="edgeStyle=orthogonalEdgeStyle;shape=connector;rounded=0;orthogonalLoop=1;jettySize=auto;html=1;strokeColor=#808080;strokeWidth=2;align=center;verticalAlign=middle;fontFamily=Helvetica;fontSize=11;fontColor=default;labelBackgroundColor=default;startArrow=none;startFill=0;endArrow=open;endFill=0;" parent="UEzPUAAOIrF-is8g5C7q-205" source="UEzPUAAOIrF-is8g5C7q-221" target="jMv3wiVejtYcK5WS_Cf9-7" edge="1">
          <mxGeometry relative="1" as="geometry" />
        </mxCell>
        <mxCell id="UEzPUAAOIrF-is8g5C7q-221" value="AWS Lambda&lt;div style=&quot;font-size: 9px;&quot;&gt;Invoke Automation&lt;/div&gt;&lt;div style=&quot;font-size: 9px;&quot;&gt;&lt;br style=&quot;font-size: 9px;&quot;&gt;&lt;/div&gt;" style="outlineConnect=0;fontColor=#232F3E;gradientColor=none;fillColor=#D05C17;strokeColor=none;dashed=0;verticalLabelPosition=middle;verticalAlign=middle;align=left;html=1;fontSize=9;fontStyle=0;aspect=fixed;pointerEvents=1;shape=mxgraph.aws4.lambda_function;labelBackgroundColor=#ffffff;labelPosition=right;" parent="UEzPUAAOIrF-is8g5C7q-205" vertex="1">
          <mxGeometry x="414.25" y="49.5" width="60.5" height="60.5" as="geometry" />
        </mxCell>
        <mxCell id="jMv3wiVejtYcK5WS_Cf9-25" style="edgeStyle=orthogonalEdgeStyle;shape=connector;rounded=0;orthogonalLoop=1;jettySize=auto;html=1;strokeColor=#808080;strokeWidth=2;align=center;verticalAlign=middle;fontFamily=Helvetica;fontSize=11;fontColor=default;labelBackgroundColor=default;startArrow=none;startFill=0;endArrow=open;endFill=0;" parent="UEzPUAAOIrF-is8g5C7q-205" source="jMv3wiVejtYcK5WS_Cf9-7" target="jMv3wiVejtYcK5WS_Cf9-8" edge="1">
          <mxGeometry relative="1" as="geometry" />
        </mxCell>
        <mxCell id="jMv3wiVejtYcK5WS_Cf9-7" value="Multi-Account&lt;div style=&quot;font-size: 9px;&quot;&gt;Multi-Region&lt;/div&gt;&lt;div style=&quot;font-size: 9px;&quot;&gt;Automation&lt;/div&gt;" style="sketch=0;outlineConnect=0;fontColor=#232F3E;gradientColor=none;fillColor=#E7157B;strokeColor=none;dashed=0;verticalLabelPosition=middle;verticalAlign=middle;align=left;html=1;fontSize=9;fontStyle=0;aspect=fixed;pointerEvents=1;shape=mxgraph.aws4.automation;hachureGap=4;jiggle=2;curveFitting=1;fontFamily=Helvetica;labelPosition=right;" parent="UEzPUAAOIrF-is8g5C7q-205" vertex="1">
          <mxGeometry x="414.25" y="145.75" width="60.5" height="60.5" as="geometry" />
        </mxCell>
        <mxCell id="jMv3wiVejtYcK5WS_Cf9-8" value="Automation&lt;div style=&quot;font-size: 9px;&quot;&gt;AdministrationRole&lt;/div&gt;" style="sketch=0;outlineConnect=0;fontColor=#232F3E;gradientColor=none;fillColor=#DD344C;strokeColor=none;dashed=0;verticalLabelPosition=middle;verticalAlign=middle;align=left;html=1;fontSize=9;fontStyle=0;aspect=fixed;pointerEvents=1;shape=mxgraph.aws4.role;hachureGap=4;jiggle=2;curveFitting=1;fontFamily=Helvetica;labelPosition=right;" parent="UEzPUAAOIrF-is8g5C7q-205" vertex="1">
          <mxGeometry x="409.05" y="250" width="70.91" height="40" as="geometry" />
        </mxCell>
        <mxCell id="jMv3wiVejtYcK5WS_Cf9-19" style="edgeStyle=orthogonalEdgeStyle;shape=connector;rounded=0;orthogonalLoop=1;jettySize=auto;html=1;entryX=0.5;entryY=0;entryDx=0;entryDy=0;entryPerimeter=0;strokeColor=#808080;strokeWidth=2;align=center;verticalAlign=middle;fontFamily=Helvetica;fontSize=11;fontColor=default;labelBackgroundColor=default;startArrow=none;startFill=0;endArrow=open;endFill=0;" parent="UEzPUAAOIrF-is8g5C7q-205" source="jMv3wiVejtYcK5WS_Cf9-2" target="jMv3wiVejtYcK5WS_Cf9-3" edge="1">
          <mxGeometry relative="1" as="geometry" />
        </mxCell>
        <mxCell id="jMv3wiVejtYcK5WS_Cf9-21" style="edgeStyle=orthogonalEdgeStyle;shape=connector;rounded=0;orthogonalLoop=1;jettySize=auto;html=1;entryX=0.5;entryY=0;entryDx=0;entryDy=0;entryPerimeter=0;strokeColor=#808080;strokeWidth=2;align=center;verticalAlign=middle;fontFamily=Helvetica;fontSize=11;fontColor=default;labelBackgroundColor=default;startArrow=none;startFill=0;endArrow=open;endFill=0;" parent="UEzPUAAOIrF-is8g5C7q-205" source="jMv3wiVejtYcK5WS_Cf9-3" target="jMv3wiVejtYcK5WS_Cf9-4" edge="1">
          <mxGeometry relative="1" as="geometry" />
        </mxCell>
        <mxCell id="jMv3wiVejtYcK5WS_Cf9-13" value="Inventory" style="sketch=0;outlineConnect=0;fontColor=#232F3E;gradientColor=none;fillColor=#E7157B;strokeColor=none;dashed=0;verticalLabelPosition=middle;verticalAlign=middle;align=left;html=1;fontSize=9;fontStyle=0;aspect=fixed;pointerEvents=1;shape=mxgraph.aws4.inventory;hachureGap=4;jiggle=2;curveFitting=1;fontFamily=Helvetica;labelPosition=right;" parent="1" vertex="1">
          <mxGeometry x="410" y="460" width="50" height="50" as="geometry" />
        </mxCell>
        <mxCell id="jMv3wiVejtYcK5WS_Cf9-29" style="edgeStyle=orthogonalEdgeStyle;shape=connector;rounded=0;orthogonalLoop=1;jettySize=auto;html=1;strokeColor=#808080;strokeWidth=2;align=center;verticalAlign=middle;fontFamily=Helvetica;fontSize=11;fontColor=default;labelBackgroundColor=default;startArrow=open;startFill=0;endArrow=open;endFill=0;" parent="1" source="jMv3wiVejtYcK5WS_Cf9-9" target="jMv3wiVejtYcK5WS_Cf9-15" edge="1">
          <mxGeometry relative="1" as="geometry" />
        </mxCell>
        <mxCell id="jMv3wiVejtYcK5WS_Cf9-33" style="edgeStyle=orthogonalEdgeStyle;shape=connector;rounded=0;orthogonalLoop=1;jettySize=auto;html=1;exitX=0;exitY=0.25;exitDx=0;exitDy=0;exitPerimeter=0;strokeColor=#808080;strokeWidth=2;align=center;verticalAlign=middle;fontFamily=Helvetica;fontSize=11;fontColor=default;labelBackgroundColor=default;startArrow=open;startFill=0;endArrow=open;endFill=0;" parent="1" source="jMv3wiVejtYcK5WS_Cf9-9" target="jMv3wiVejtYcK5WS_Cf9-13" edge="1">
          <mxGeometry relative="1" as="geometry" />
        </mxCell>
        <mxCell id="jMv3wiVejtYcK5WS_Cf9-34" style="edgeStyle=orthogonalEdgeStyle;shape=connector;rounded=0;orthogonalLoop=1;jettySize=auto;html=1;exitX=0;exitY=0.75;exitDx=0;exitDy=0;exitPerimeter=0;strokeColor=#808080;strokeWidth=2;align=center;verticalAlign=middle;fontFamily=Helvetica;fontSize=11;fontColor=default;labelBackgroundColor=default;startArrow=open;startFill=0;endArrow=open;endFill=0;" parent="1" source="jMv3wiVejtYcK5WS_Cf9-9" target="jMv3wiVejtYcK5WS_Cf9-14" edge="1">
          <mxGeometry relative="1" as="geometry" />
        </mxCell>
        <mxCell id="jMv3wiVejtYcK5WS_Cf9-9" value="EC2 Managed&lt;div style=&quot;font-size: 9px;&quot;&gt;Instances&lt;/div&gt;" style="sketch=0;points=[[0,0,0],[0.25,0,0],[0.5,0,0],[0.75,0,0],[1,0,0],[0,1,0],[0.25,1,0],[0.5,1,0],[0.75,1,0],[1,1,0],[0,0.25,0],[0,0.5,0],[0,0.75,0],[1,0.25,0],[1,0.5,0],[1,0.75,0]];outlineConnect=0;fontColor=#232F3E;fillColor=#ED7100;strokeColor=#ffffff;dashed=0;verticalLabelPosition=top;verticalAlign=bottom;align=center;html=1;fontSize=9;fontStyle=0;aspect=fixed;shape=mxgraph.aws4.resourceIcon;resIcon=mxgraph.aws4.ec2;hachureGap=4;jiggle=2;curveFitting=1;fontFamily=Helvetica;labelPosition=center;" parent="1" vertex="1">
          <mxGeometry x="515" y="565" width="70" height="70" as="geometry" />
        </mxCell>
        <mxCell id="jMv3wiVejtYcK5WS_Cf9-26" style="edgeStyle=orthogonalEdgeStyle;shape=connector;rounded=0;orthogonalLoop=1;jettySize=auto;html=1;strokeColor=#b85450;strokeWidth=2;align=center;verticalAlign=middle;fontFamily=Helvetica;fontSize=11;fontColor=default;labelBackgroundColor=default;startArrow=none;startFill=0;endArrow=open;endFill=0;fillColor=#f8cecc;" parent="1" source="jMv3wiVejtYcK5WS_Cf9-8" target="jMv3wiVejtYcK5WS_Cf9-17" edge="1">
          <mxGeometry relative="1" as="geometry" />
        </mxCell>
        <mxCell id="jMv3wiVejtYcK5WS_Cf9-38" style="edgeStyle=orthogonalEdgeStyle;shape=connector;rounded=0;orthogonalLoop=1;jettySize=auto;html=1;strokeColor=#808080;strokeWidth=2;align=center;verticalAlign=middle;fontFamily=Helvetica;fontSize=11;fontColor=default;labelBackgroundColor=default;startArrow=open;startFill=0;endArrow=open;endFill=0;" parent="1" source="jMv3wiVejtYcK5WS_Cf9-16" target="jMv3wiVejtYcK5WS_Cf9-9" edge="1">
          <mxGeometry relative="1" as="geometry" />
        </mxCell>
        <mxCell id="jMv3wiVejtYcK5WS_Cf9-39" style="edgeStyle=orthogonalEdgeStyle;shape=connector;rounded=0;orthogonalLoop=1;jettySize=auto;html=1;entryX=0.899;entryY=0.277;entryDx=0;entryDy=0;entryPerimeter=0;strokeColor=#808080;strokeWidth=2;align=center;verticalAlign=middle;fontFamily=Helvetica;fontSize=2;fontColor=default;labelBackgroundColor=default;startArrow=none;startFill=0;endArrow=open;endFill=0;" parent="1" source="jMv3wiVejtYcK5WS_Cf9-13" target="jMv3wiVejtYcK5WS_Cf9-12" edge="1">
          <mxGeometry relative="1" as="geometry" />
        </mxCell>
        <mxCell id="jMv3wiVejtYcK5WS_Cf9-41" style="edgeStyle=orthogonalEdgeStyle;shape=connector;rounded=0;orthogonalLoop=1;jettySize=auto;html=1;strokeColor=#808080;strokeWidth=1;align=center;verticalAlign=middle;fontFamily=Helvetica;fontSize=11;fontColor=default;labelBackgroundColor=default;startArrow=none;startFill=0;endArrow=open;endFill=0;dashed=1;dashPattern=12 12;" parent="1" source="jMv3wiVejtYcK5WS_Cf9-12" target="jMv3wiVejtYcK5WS_Cf9-5" edge="1">
          <mxGeometry relative="1" as="geometry">
            <Array as="points">
              <mxPoint x="180" y="526" />
              <mxPoint x="180" y="335" />
            </Array>
          </mxGeometry>
        </mxCell>
        <mxCell id="tlTtuqMrw8REX9IO8kG6-74" value="" style="rounded=0;whiteSpace=wrap;html=1;labelBackgroundColor=#ffffff;fillColor=#ffffff;gradientColor=none;container=1;pointerEvents=0;collapsible=0;recursiveResize=0;" vertex="1" parent="1">
          <mxGeometry x="254.5" y="1249" width="610" height="300" as="geometry" />
        </mxCell>
        <mxCell id="tlTtuqMrw8REX9IO8kG6-75" value="" style="rounded=0;whiteSpace=wrap;html=1;labelBackgroundColor=#ffffff;fillColor=#ffffff;gradientColor=none;container=0;pointerEvents=0;collapsible=0;recursiveResize=0;" vertex="1" parent="1">
          <mxGeometry x="264.5" y="1259" width="610" height="300" as="geometry" />
        </mxCell>
        <mxCell id="tlTtuqMrw8REX9IO8kG6-76" value="AWS Cloud" style="points=[[0,0],[0.25,0],[0.5,0],[0.75,0],[1,0],[1,0.25],[1,0.5],[1,0.75],[1,1],[0.75,1],[0.5,1],[0.25,1],[0,1],[0,0.75],[0,0.5],[0,0.25]];outlineConnect=0;gradientColor=none;html=1;whiteSpace=wrap;fontSize=12;fontStyle=0;shape=mxgraph.aws4.group;grIcon=mxgraph.aws4.group_aws_cloud_alt;strokeColor=#232F3E;fillColor=#ffffff;verticalAlign=top;align=left;spacingLeft=30;fontColor=#232F3E;dashed=0;labelBackgroundColor=#ffffff;container=1;pointerEvents=0;collapsible=0;recursiveResize=0;" vertex="1" parent="1">
          <mxGeometry x="274.5" y="1269" width="610" height="300" as="geometry" />
        </mxCell>
        <mxCell id="tlTtuqMrw8REX9IO8kG6-77" style="edgeStyle=orthogonalEdgeStyle;shape=connector;rounded=0;orthogonalLoop=1;jettySize=auto;html=1;strokeColor=#808080;strokeWidth=2;align=center;verticalAlign=middle;fontFamily=Helvetica;fontSize=11;fontColor=default;labelBackgroundColor=default;startArrow=none;startFill=0;endArrow=open;endFill=0;" edge="1" parent="tlTtuqMrw8REX9IO8kG6-76" source="tlTtuqMrw8REX9IO8kG6-78" target="tlTtuqMrw8REX9IO8kG6-80">
          <mxGeometry relative="1" as="geometry" />
        </mxCell>
        <mxCell id="tlTtuqMrw8REX9IO8kG6-78" value="Automation ExecutionRole" style="sketch=0;outlineConnect=0;fontColor=#232F3E;gradientColor=none;fillColor=#DD344C;strokeColor=none;dashed=0;verticalLabelPosition=middle;verticalAlign=middle;align=left;html=1;fontSize=9;fontStyle=0;aspect=fixed;pointerEvents=1;shape=mxgraph.aws4.role;hachureGap=4;jiggle=2;curveFitting=1;fontFamily=Helvetica;labelPosition=right;" vertex="1" parent="tlTtuqMrw8REX9IO8kG6-76">
          <mxGeometry x="397.92" y="19" width="53.18" height="30" as="geometry" />
        </mxCell>
        <mxCell id="tlTtuqMrw8REX9IO8kG6-79" style="edgeStyle=orthogonalEdgeStyle;shape=connector;rounded=0;orthogonalLoop=1;jettySize=auto;html=1;strokeColor=#808080;strokeWidth=2;align=center;verticalAlign=middle;fontFamily=Helvetica;fontSize=11;fontColor=default;labelBackgroundColor=default;startArrow=none;startFill=0;endArrow=open;endFill=0;" edge="1" parent="tlTtuqMrw8REX9IO8kG6-76" source="tlTtuqMrw8REX9IO8kG6-80" target="tlTtuqMrw8REX9IO8kG6-81">
          <mxGeometry relative="1" as="geometry" />
        </mxCell>
        <mxCell id="tlTtuqMrw8REX9IO8kG6-80" value="Automation to start&lt;div style=&quot;font-size: 9px;&quot;&gt;PatchBaseLine document&lt;/div&gt;" style="sketch=0;outlineConnect=0;fontColor=#232F3E;gradientColor=none;fillColor=#E7157B;strokeColor=none;dashed=0;verticalLabelPosition=middle;verticalAlign=middle;align=left;html=1;fontSize=9;fontStyle=0;aspect=fixed;pointerEvents=1;shape=mxgraph.aws4.automation;hachureGap=4;jiggle=2;curveFitting=1;fontFamily=Helvetica;labelPosition=right;" vertex="1" parent="tlTtuqMrw8REX9IO8kG6-76">
          <mxGeometry x="399.51000000000005" y="80" width="50" height="50" as="geometry" />
        </mxCell>
        <mxCell id="tlTtuqMrw8REX9IO8kG6-81" value="AWS-RunPatchBaseline" style="sketch=0;outlineConnect=0;fontColor=#232F3E;gradientColor=none;fillColor=#E7157B;strokeColor=none;dashed=0;verticalLabelPosition=middle;verticalAlign=middle;align=left;html=1;fontSize=9;fontStyle=0;aspect=fixed;pointerEvents=1;shape=mxgraph.aws4.run_command;hachureGap=4;jiggle=2;curveFitting=1;fontFamily=Helvetica;labelPosition=right;" vertex="1" parent="tlTtuqMrw8REX9IO8kG6-76">
          <mxGeometry x="396.14" y="160" width="56.73" height="40" as="geometry" />
        </mxCell>
        <mxCell id="tlTtuqMrw8REX9IO8kG6-82" value="Patch Manager" style="sketch=0;outlineConnect=0;fontColor=#232F3E;gradientColor=none;fillColor=#E7157B;strokeColor=none;dashed=0;verticalLabelPosition=middle;verticalAlign=middle;align=left;html=1;fontSize=9;fontStyle=0;aspect=fixed;pointerEvents=1;shape=mxgraph.aws4.patch_manager;hachureGap=4;jiggle=2;curveFitting=1;fontFamily=Helvetica;labelPosition=right;" vertex="1" parent="tlTtuqMrw8REX9IO8kG6-76">
          <mxGeometry x="165.5" y="230" width="60" height="60" as="geometry" />
        </mxCell>
        <mxCell id="tlTtuqMrw8REX9IO8kG6-83" value="Resource&lt;div style=&quot;font-size: 9px;&quot;&gt;Data Sync&lt;/div&gt;" style="html=1;verticalLabelPosition=bottom;align=center;labelBackgroundColor=#ffffff;verticalAlign=top;strokeWidth=2;strokeColor=#000000;shadow=0;dashed=0;shape=mxgraph.ios7.icons.data;hachureGap=4;fontFamily=Helvetica;fillColor=default;fontSize=9;" vertex="1" parent="tlTtuqMrw8REX9IO8kG6-76">
          <mxGeometry x="25.5" y="81.25" width="44.5" height="48.75" as="geometry" />
        </mxCell>
        <mxCell id="tlTtuqMrw8REX9IO8kG6-84" value="State manager" style="sketch=0;outlineConnect=0;fontColor=#232F3E;gradientColor=none;fillColor=#E7157B;strokeColor=none;dashed=0;verticalLabelPosition=middle;verticalAlign=middle;align=left;html=1;fontSize=9;fontStyle=0;aspect=fixed;pointerEvents=1;shape=mxgraph.aws4.state_manager;hachureGap=4;jiggle=2;curveFitting=1;fontFamily=Helvetica;labelPosition=right;" vertex="1" parent="tlTtuqMrw8REX9IO8kG6-76">
          <mxGeometry x="365.5" y="230" width="60" height="60" as="geometry" />
        </mxCell>
        <mxCell id="tlTtuqMrw8REX9IO8kG6-85" style="edgeStyle=orthogonalEdgeStyle;shape=connector;rounded=0;orthogonalLoop=1;jettySize=auto;html=1;entryX=1.007;entryY=0.702;entryDx=0;entryDy=0;entryPerimeter=0;strokeColor=#808080;strokeWidth=2;align=center;verticalAlign=middle;fontFamily=Helvetica;fontSize=11;fontColor=default;labelBackgroundColor=default;startArrow=open;startFill=0;endArrow=open;endFill=0;" edge="1" parent="tlTtuqMrw8REX9IO8kG6-76" source="tlTtuqMrw8REX9IO8kG6-82" target="tlTtuqMrw8REX9IO8kG6-83">
          <mxGeometry relative="1" as="geometry" />
        </mxCell>
        <mxCell id="tlTtuqMrw8REX9IO8kG6-86" value="Cuenta Servicios Compartidos CO" style="points=[[0,0],[0.25,0],[0.5,0],[0.75,0],[1,0],[1,0.25],[1,0.5],[1,0.75],[1,1],[0.75,1],[0.5,1],[0.25,1],[0,1],[0,0.75],[0,0.5],[0,0.25]];outlineConnect=0;gradientColor=none;html=1;whiteSpace=wrap;fontSize=12;fontStyle=0;shape=mxgraph.aws4.group;grIcon=mxgraph.aws4.group_aws_cloud_alt;strokeColor=#232F3E;fillColor=default;verticalAlign=top;align=left;spacingLeft=30;fontColor=#232F3E;dashed=0;labelBackgroundColor=#ffffff;container=1;pointerEvents=0;collapsible=0;recursiveResize=0;" vertex="1" parent="1">
          <mxGeometry x="254.5" y="889.5" width="616" height="330" as="geometry" />
        </mxCell>
        <mxCell id="tlTtuqMrw8REX9IO8kG6-136" value="" style="rounded=0;whiteSpace=wrap;html=1;hachureGap=4;fontFamily=Architects Daughter;fontSource=https%3A%2F%2Ffonts.googleapis.com%2Fcss%3Ffamily%3DArchitects%2BDaughter;glass=0;dashed=1;strokeColor=#A1A1A1;" vertex="1" parent="tlTtuqMrw8REX9IO8kG6-86">
          <mxGeometry x="10" y="30.5" width="135.5" height="279.5" as="geometry" />
        </mxCell>
        <mxCell id="tlTtuqMrw8REX9IO8kG6-88" style="edgeStyle=orthogonalEdgeStyle;shape=connector;rounded=0;orthogonalLoop=1;jettySize=auto;html=1;strokeColor=#808080;strokeWidth=2;align=center;verticalAlign=middle;fontFamily=Helvetica;fontSize=11;fontColor=default;labelBackgroundColor=default;startArrow=none;startFill=0;endArrow=open;endFill=0;" edge="1" parent="tlTtuqMrw8REX9IO8kG6-86" source="tlTtuqMrw8REX9IO8kG6-89" target="tlTtuqMrw8REX9IO8kG6-91">
          <mxGeometry relative="1" as="geometry" />
        </mxCell>
        <mxCell id="tlTtuqMrw8REX9IO8kG6-89" value="&lt;font style=&quot;font-size: 9px;&quot; face=&quot;Helvetica&quot;&gt;AWS Glue&lt;/font&gt;&lt;div&gt;&lt;font style=&quot;font-size: 9px;&quot; face=&quot;Helvetica&quot;&gt;Crawler&lt;/font&gt;&lt;/div&gt;" style="sketch=0;points=[[0,0,0],[0.25,0,0],[0.5,0,0],[0.75,0,0],[1,0,0],[0,1,0],[0.25,1,0],[0.5,1,0],[0.75,1,0],[1,1,0],[0,0.25,0],[0,0.5,0],[0,0.75,0],[1,0.25,0],[1,0.5,0],[1,0.75,0]];outlineConnect=0;fontColor=#232F3E;fillColor=#8C4FFF;strokeColor=#ffffff;dashed=0;verticalLabelPosition=middle;verticalAlign=middle;align=left;html=1;fontSize=9;fontStyle=0;aspect=fixed;shape=mxgraph.aws4.resourceIcon;resIcon=mxgraph.aws4.glue;hachureGap=4;jiggle=2;curveFitting=1;fontFamily=Architects Daughter;fontSource=https%3A%2F%2Ffonts.googleapis.com%2Fcss%3Ffamily%3DArchitects%2BDaughter;labelPosition=right;" vertex="1" parent="tlTtuqMrw8REX9IO8kG6-86">
          <mxGeometry x="41.5" y="129.5" width="50.5" height="50.5" as="geometry" />
        </mxCell>
        <mxCell id="tlTtuqMrw8REX9IO8kG6-90" value="&lt;font style=&quot;font-size: 9px;&quot; face=&quot;Helvetica&quot;&gt;Amazon&amp;nbsp;&lt;/font&gt;&lt;div&gt;&lt;font style=&quot;font-size: 9px;&quot; face=&quot;Helvetica&quot;&gt;Athena&lt;/font&gt;&lt;/div&gt;" style="sketch=0;points=[[0,0,0],[0.25,0,0],[0.5,0,0],[0.75,0,0],[1,0,0],[0,1,0],[0.25,1,0],[0.5,1,0],[0.75,1,0],[1,1,0],[0,0.25,0],[0,0.5,0],[0,0.75,0],[1,0.25,0],[1,0.5,0],[1,0.75,0]];outlineConnect=0;fontColor=#232F3E;fillColor=#8C4FFF;strokeColor=#ffffff;dashed=0;verticalLabelPosition=middle;verticalAlign=middle;align=left;html=1;fontSize=12;fontStyle=0;aspect=fixed;shape=mxgraph.aws4.resourceIcon;resIcon=mxgraph.aws4.athena;hachureGap=4;jiggle=2;curveFitting=1;fontFamily=Architects Daughter;fontSource=https%3A%2F%2Ffonts.googleapis.com%2Fcss%3Ffamily%3DArchitects%2BDaughter;labelPosition=right;" vertex="1" parent="tlTtuqMrw8REX9IO8kG6-86">
          <mxGeometry x="41.5" y="47.5" width="52.5" height="52.5" as="geometry" />
        </mxCell>
        <mxCell id="tlTtuqMrw8REX9IO8kG6-91" value="&lt;font face=&quot;Helvetica&quot; style=&quot;font-size: 9px;&quot;&gt;S3 Central&lt;/font&gt;&lt;div&gt;&lt;font face=&quot;Helvetica&quot; style=&quot;font-size: 9px;&quot;&gt;Bucket&lt;/font&gt;&lt;/div&gt;" style="sketch=0;outlineConnect=0;fontColor=#232F3E;gradientColor=none;fillColor=#7AA116;strokeColor=none;dashed=0;verticalLabelPosition=middle;verticalAlign=middle;align=left;html=1;fontSize=9;fontStyle=0;aspect=fixed;pointerEvents=1;shape=mxgraph.aws4.bucket;hachureGap=4;jiggle=2;curveFitting=1;fontFamily=Architects Daughter;fontSource=https%3A%2F%2Ffonts.googleapis.com%2Fcss%3Ffamily%3DArchitects%2BDaughter;labelPosition=right;" vertex="1" parent="tlTtuqMrw8REX9IO8kG6-86">
          <mxGeometry x="42.5" y="199.5" width="48.56" height="50.5" as="geometry" />
        </mxCell>
        <mxCell id="tlTtuqMrw8REX9IO8kG6-98" value="Automation&lt;div style=&quot;font-size: 9px;&quot;&gt;AdministrationRole&lt;/div&gt;" style="sketch=0;outlineConnect=0;fontColor=#232F3E;gradientColor=none;fillColor=#DD344C;strokeColor=none;dashed=0;verticalLabelPosition=middle;verticalAlign=middle;align=left;html=1;fontSize=9;fontStyle=0;aspect=fixed;pointerEvents=1;shape=mxgraph.aws4.role;hachureGap=4;jiggle=2;curveFitting=1;fontFamily=Helvetica;labelPosition=right;" vertex="1" parent="tlTtuqMrw8REX9IO8kG6-86">
          <mxGeometry x="409.05" y="250" width="53.18" height="30" as="geometry" />
        </mxCell>
        <mxCell id="tlTtuqMrw8REX9IO8kG6-100" style="edgeStyle=orthogonalEdgeStyle;shape=connector;rounded=0;orthogonalLoop=1;jettySize=auto;html=1;entryX=0.5;entryY=0;entryDx=0;entryDy=0;entryPerimeter=0;strokeColor=#808080;strokeWidth=2;align=center;verticalAlign=middle;fontFamily=Helvetica;fontSize=11;fontColor=default;labelBackgroundColor=default;startArrow=none;startFill=0;endArrow=open;endFill=0;" edge="1" parent="tlTtuqMrw8REX9IO8kG6-86" source="tlTtuqMrw8REX9IO8kG6-90" target="tlTtuqMrw8REX9IO8kG6-89">
          <mxGeometry relative="1" as="geometry" />
        </mxCell>
        <mxCell id="tlTtuqMrw8REX9IO8kG6-129" value="&lt;font style=&quot;font-size: 11px;&quot; face=&quot;Helvetica&quot;&gt;SSM HostMgmt&lt;/font&gt;&lt;div&gt;&lt;font style=&quot;font-size: 11px;&quot; face=&quot;Helvetica&quot;&gt;StackSet&lt;/font&gt;&lt;/div&gt;" style="sketch=0;outlineConnect=0;fontColor=#232F3E;gradientColor=none;fillColor=#E7157B;strokeColor=none;dashed=0;verticalLabelPosition=bottom;verticalAlign=top;align=center;html=1;fontSize=12;fontStyle=0;aspect=fixed;pointerEvents=1;shape=mxgraph.aws4.stack;hachureGap=4;jiggle=2;curveFitting=1;fontFamily=Architects Daughter;fontSource=https%3A%2F%2Ffonts.googleapis.com%2Fcss%3Ffamily%3DArchitects%2BDaughter;" vertex="1" parent="tlTtuqMrw8REX9IO8kG6-86">
          <mxGeometry x="419.11" y="129.5" width="50.8" height="49.5" as="geometry" />
        </mxCell>
        <mxCell id="tlTtuqMrw8REX9IO8kG6-138" value="" style="edgeStyle=none;shape=connector;curved=0;rounded=1;hachureGap=4;orthogonalLoop=1;jettySize=auto;html=1;strokeColor=#696969;align=center;verticalAlign=middle;fontFamily=Architects Daughter;fontSource=https%3A%2F%2Ffonts.googleapis.com%2Fcss%3Ffamily%3DArchitects%2BDaughter;fontSize=12;fontColor=default;labelBackgroundColor=default;endArrow=classicThin;endFill=1;" edge="1" parent="tlTtuqMrw8REX9IO8kG6-86" source="tlTtuqMrw8REX9IO8kG6-132" target="tlTtuqMrw8REX9IO8kG6-133">
          <mxGeometry relative="1" as="geometry" />
        </mxCell>
        <mxCell id="tlTtuqMrw8REX9IO8kG6-132" value="&lt;font face=&quot;Helvetica&quot;&gt;&lt;span style=&quot;font-size: 11px;&quot;&gt;CentralAccount&lt;/span&gt;&lt;/font&gt;&lt;div&gt;&lt;font face=&quot;Helvetica&quot;&gt;&lt;span style=&quot;font-size: 11px;&quot;&gt;Stack&lt;/span&gt;&lt;/font&gt;&lt;/div&gt;" style="sketch=0;outlineConnect=0;fontColor=#232F3E;gradientColor=none;fillColor=#E7157B;strokeColor=none;dashed=0;verticalLabelPosition=bottom;verticalAlign=top;align=center;html=1;fontSize=12;fontStyle=0;aspect=fixed;pointerEvents=1;shape=mxgraph.aws4.stack;hachureGap=4;jiggle=2;curveFitting=1;fontFamily=Architects Daughter;fontSource=https%3A%2F%2Ffonts.googleapis.com%2Fcss%3Ffamily%3DArchitects%2BDaughter;" vertex="1" parent="tlTtuqMrw8REX9IO8kG6-86">
          <mxGeometry x="278.50000000000006" y="100.5" width="50.8" height="49.5" as="geometry" />
        </mxCell>
        <mxCell id="tlTtuqMrw8REX9IO8kG6-133" value="&lt;font style=&quot;font-size: 10px;&quot; face=&quot;Helvetica&quot;&gt;AWS&amp;nbsp;&lt;/font&gt;&lt;div&gt;&lt;font style=&quot;font-size: 10px;&quot; face=&quot;Helvetica&quot;&gt;CloudFormation&lt;/font&gt;&lt;/div&gt;" style="sketch=0;points=[[0,0,0],[0.25,0,0],[0.5,0,0],[0.75,0,0],[1,0,0],[0,1,0],[0.25,1,0],[0.5,1,0],[0.75,1,0],[1,1,0],[0,0.25,0],[0,0.5,0],[0,0.75,0],[1,0.25,0],[1,0.5,0],[1,0.75,0]];points=[[0,0,0],[0.25,0,0],[0.5,0,0],[0.75,0,0],[1,0,0],[0,1,0],[0.25,1,0],[0.5,1,0],[0.75,1,0],[1,1,0],[0,0.25,0],[0,0.5,0],[0,0.75,0],[1,0.25,0],[1,0.5,0],[1,0.75,0]];outlineConnect=0;fontColor=#232F3E;fillColor=#E7157B;strokeColor=#ffffff;dashed=0;verticalLabelPosition=bottom;verticalAlign=top;align=center;html=1;fontSize=12;fontStyle=0;aspect=fixed;shape=mxgraph.aws4.resourceIcon;resIcon=mxgraph.aws4.cloudformation;hachureGap=4;jiggle=2;curveFitting=1;fontFamily=Architects Daughter;fontSource=https%3A%2F%2Ffonts.googleapis.com%2Fcss%3Ffamily%3DArchitects%2BDaughter;" vertex="1" parent="tlTtuqMrw8REX9IO8kG6-86">
          <mxGeometry x="183.5" y="100.5" width="49.5" height="49.5" as="geometry" />
        </mxCell>
        <mxCell id="tlTtuqMrw8REX9IO8kG6-135" value="&lt;font face=&quot;Helvetica&quot;&gt;KMS Key&lt;/font&gt;" style="sketch=0;outlineConnect=0;fontColor=#232F3E;gradientColor=none;fillColor=#DD344C;strokeColor=none;dashed=0;verticalLabelPosition=bottom;verticalAlign=top;align=center;html=1;fontSize=8;fontStyle=0;aspect=fixed;pointerEvents=1;shape=mxgraph.aws4.data_encryption_key;hachureGap=4;jiggle=2;curveFitting=1;fontFamily=Architects Daughter;fontSource=https%3A%2F%2Ffonts.googleapis.com%2Fcss%3Ffamily%3DArchitects%2BDaughter;spacing=-4;" vertex="1" parent="tlTtuqMrw8REX9IO8kG6-86">
          <mxGeometry x="25.5" y="230.5" width="32.19" height="40.5" as="geometry" />
        </mxCell>
        <mxCell id="tlTtuqMrw8REX9IO8kG6-137" style="edgeStyle=none;curved=0;rounded=1;hachureGap=4;orthogonalLoop=1;jettySize=auto;html=1;entryX=0.993;entryY=0.342;entryDx=0;entryDy=0;entryPerimeter=0;fontFamily=Architects Daughter;fontSource=https%3A%2F%2Ffonts.googleapis.com%2Fcss%3Ffamily%3DArchitects%2BDaughter;fontSize=12;strokeColor=#696969;endArrow=classicThin;endFill=1;" edge="1" parent="tlTtuqMrw8REX9IO8kG6-86" source="tlTtuqMrw8REX9IO8kG6-133" target="tlTtuqMrw8REX9IO8kG6-136">
          <mxGeometry relative="1" as="geometry" />
        </mxCell>
        <mxCell id="tlTtuqMrw8REX9IO8kG6-101" value="Inventory" style="sketch=0;outlineConnect=0;fontColor=#232F3E;gradientColor=none;fillColor=#E7157B;strokeColor=none;dashed=0;verticalLabelPosition=middle;verticalAlign=middle;align=left;html=1;fontSize=9;fontStyle=0;aspect=fixed;pointerEvents=1;shape=mxgraph.aws4.inventory;hachureGap=4;jiggle=2;curveFitting=1;fontFamily=Helvetica;labelPosition=right;" vertex="1" parent="1">
          <mxGeometry x="440" y="1309" width="50" height="50" as="geometry" />
        </mxCell>
        <mxCell id="tlTtuqMrw8REX9IO8kG6-102" style="edgeStyle=orthogonalEdgeStyle;shape=connector;rounded=0;orthogonalLoop=1;jettySize=auto;html=1;strokeColor=#808080;strokeWidth=2;align=center;verticalAlign=middle;fontFamily=Helvetica;fontSize=11;fontColor=default;labelBackgroundColor=default;startArrow=open;startFill=0;endArrow=open;endFill=0;" edge="1" parent="1" source="tlTtuqMrw8REX9IO8kG6-105" target="tlTtuqMrw8REX9IO8kG6-81">
          <mxGeometry relative="1" as="geometry" />
        </mxCell>
        <mxCell id="tlTtuqMrw8REX9IO8kG6-103" style="edgeStyle=orthogonalEdgeStyle;shape=connector;rounded=0;orthogonalLoop=1;jettySize=auto;html=1;exitX=0;exitY=0.25;exitDx=0;exitDy=0;exitPerimeter=0;strokeColor=#808080;strokeWidth=2;align=center;verticalAlign=middle;fontFamily=Helvetica;fontSize=11;fontColor=default;labelBackgroundColor=default;startArrow=open;startFill=0;endArrow=open;endFill=0;" edge="1" parent="1" source="tlTtuqMrw8REX9IO8kG6-105" target="tlTtuqMrw8REX9IO8kG6-101">
          <mxGeometry relative="1" as="geometry" />
        </mxCell>
        <mxCell id="tlTtuqMrw8REX9IO8kG6-104" style="edgeStyle=orthogonalEdgeStyle;shape=connector;rounded=0;orthogonalLoop=1;jettySize=auto;html=1;exitX=0;exitY=0.75;exitDx=0;exitDy=0;exitPerimeter=0;strokeColor=#808080;strokeWidth=2;align=center;verticalAlign=middle;fontFamily=Helvetica;fontSize=11;fontColor=default;labelBackgroundColor=default;startArrow=open;startFill=0;endArrow=open;endFill=0;" edge="1" parent="1" source="tlTtuqMrw8REX9IO8kG6-105" target="tlTtuqMrw8REX9IO8kG6-82">
          <mxGeometry relative="1" as="geometry" />
        </mxCell>
        <mxCell id="tlTtuqMrw8REX9IO8kG6-105" value="EC2 Managed&lt;div style=&quot;font-size: 9px;&quot;&gt;Instances&lt;/div&gt;" style="sketch=0;points=[[0,0,0],[0.25,0,0],[0.5,0,0],[0.75,0,0],[1,0,0],[0,1,0],[0.25,1,0],[0.5,1,0],[0.75,1,0],[1,1,0],[0,0.25,0],[0,0.5,0],[0,0.75,0],[1,0.25,0],[1,0.5,0],[1,0.75,0]];outlineConnect=0;fontColor=#232F3E;fillColor=#ED7100;strokeColor=#ffffff;dashed=0;verticalLabelPosition=top;verticalAlign=bottom;align=center;html=1;fontSize=9;fontStyle=0;aspect=fixed;shape=mxgraph.aws4.resourceIcon;resIcon=mxgraph.aws4.ec2;hachureGap=4;jiggle=2;curveFitting=1;fontFamily=Helvetica;labelPosition=center;" vertex="1" parent="1">
          <mxGeometry x="545" y="1414" width="70" height="70" as="geometry" />
        </mxCell>
        <mxCell id="tlTtuqMrw8REX9IO8kG6-107" style="edgeStyle=orthogonalEdgeStyle;shape=connector;rounded=0;orthogonalLoop=1;jettySize=auto;html=1;strokeColor=#808080;strokeWidth=2;align=center;verticalAlign=middle;fontFamily=Helvetica;fontSize=11;fontColor=default;labelBackgroundColor=default;startArrow=open;startFill=0;endArrow=open;endFill=0;" edge="1" parent="1" source="tlTtuqMrw8REX9IO8kG6-84" target="tlTtuqMrw8REX9IO8kG6-105">
          <mxGeometry relative="1" as="geometry" />
        </mxCell>
        <mxCell id="tlTtuqMrw8REX9IO8kG6-108" style="edgeStyle=orthogonalEdgeStyle;shape=connector;rounded=0;orthogonalLoop=1;jettySize=auto;html=1;entryX=0.899;entryY=0.277;entryDx=0;entryDy=0;entryPerimeter=0;strokeColor=#808080;strokeWidth=2;align=center;verticalAlign=middle;fontFamily=Helvetica;fontSize=2;fontColor=default;labelBackgroundColor=default;startArrow=none;startFill=0;endArrow=open;endFill=0;" edge="1" parent="1" source="tlTtuqMrw8REX9IO8kG6-101" target="tlTtuqMrw8REX9IO8kG6-83">
          <mxGeometry relative="1" as="geometry" />
        </mxCell>
        <mxCell id="tlTtuqMrw8REX9IO8kG6-110" value="&lt;font face=&quot;Helvetica&quot;&gt;Proceso de Escaneo&lt;/font&gt;" style="text;html=1;align=center;verticalAlign=middle;whiteSpace=wrap;rounded=0;fontFamily=Architects Daughter;fontSource=https%3A%2F%2Ffonts.googleapis.com%2Fcss%3Ffamily%3DArchitects%2BDaughter;fontSize=18;" vertex="1" parent="1">
          <mxGeometry x="40" y="850" width="230" height="30" as="geometry" />
        </mxCell>
        <mxCell id="tlTtuqMrw8REX9IO8kG6-130" value="" style="sketch=0;outlineConnect=0;fontColor=#232F3E;gradientColor=none;fillColor=#E7157B;strokeColor=none;dashed=0;verticalLabelPosition=bottom;verticalAlign=top;align=center;html=1;fontSize=12;fontStyle=0;aspect=fixed;pointerEvents=1;shape=mxgraph.aws4.inventory;hachureGap=4;jiggle=2;curveFitting=1;fontFamily=Architects Daughter;fontSource=https%3A%2F%2Ffonts.googleapis.com%2Fcss%3Ffamily%3DArchitects%2BDaughter;" vertex="1" parent="1">
          <mxGeometry x="940" y="1259" width="78" height="78" as="geometry" />
        </mxCell>
        <mxCell id="tlTtuqMrw8REX9IO8kG6-131" value="" style="sketch=0;outlineConnect=0;fontColor=#232F3E;gradientColor=none;fillColor=#E7157B;strokeColor=none;dashed=0;verticalLabelPosition=bottom;verticalAlign=top;align=center;html=1;fontSize=12;fontStyle=0;aspect=fixed;pointerEvents=1;shape=mxgraph.aws4.patch_manager;hachureGap=4;jiggle=2;curveFitting=1;fontFamily=Architects Daughter;fontSource=https%3A%2F%2Ffonts.googleapis.com%2Fcss%3Ffamily%3DArchitects%2BDaughter;" vertex="1" parent="1">
          <mxGeometry x="1018" y="1210" width="78" height="78" as="geometry" />
        </mxCell>
        <mxCell id="tlTtuqMrw8REX9IO8kG6-111" value="&lt;font style=&quot;font-size: 10px;&quot; face=&quot;Helvetica&quot;&gt;AWS CloudFormation&lt;/font&gt;" style="sketch=0;points=[[0,0,0],[0.25,0,0],[0.5,0,0],[0.75,0,0],[1,0,0],[0,1,0],[0.25,1,0],[0.5,1,0],[0.75,1,0],[1,1,0],[0,0.25,0],[0,0.5,0],[0,0.75,0],[1,0.25,0],[1,0.5,0],[1,0.75,0]];points=[[0,0,0],[0.25,0,0],[0.5,0,0],[0.75,0,0],[1,0,0],[0,1,0],[0.25,1,0],[0.5,1,0],[0.75,1,0],[1,1,0],[0,0.25,0],[0,0.5,0],[0,0.75,0],[1,0.25,0],[1,0.5,0],[1,0.75,0]];outlineConnect=0;fontColor=#232F3E;fillColor=#E7157B;strokeColor=#ffffff;dashed=0;verticalLabelPosition=bottom;verticalAlign=top;align=center;html=1;fontSize=12;fontStyle=0;aspect=fixed;shape=mxgraph.aws4.resourceIcon;resIcon=mxgraph.aws4.cloudformation;hachureGap=4;jiggle=2;curveFitting=1;fontFamily=Architects Daughter;fontSource=https%3A%2F%2Ffonts.googleapis.com%2Fcss%3Ffamily%3DArchitects%2BDaughter;" vertex="1" parent="1">
          <mxGeometry x="1060" y="1320" width="49.5" height="49.5" as="geometry" />
        </mxCell>
        <mxCell id="tlTtuqMrw8REX9IO8kG6-140" value="&lt;font face=&quot;Helvetica&quot;&gt;AzureRepo&lt;/font&gt;" style="image;sketch=0;aspect=fixed;html=1;points=[];align=center;fontSize=12;image=img/lib/mscae/Azure_Repos.svg;hachureGap=4;jiggle=2;curveFitting=1;fontFamily=Architects Daughter;fontSource=https%3A%2F%2Ffonts.googleapis.com%2Fcss%3Ffamily%3DArchitects%2BDaughter;fontColor=default;labelBackgroundColor=default;" vertex="1" parent="1">
          <mxGeometry x="930" y="900" width="45" height="50" as="geometry" />
        </mxCell>
        <mxCell id="tlTtuqMrw8REX9IO8kG6-141" value="&lt;font face=&quot;Helvetica&quot;&gt;Azure Pipeline&lt;/font&gt;" style="image;sketch=0;aspect=fixed;html=1;points=[];align=center;fontSize=12;image=img/lib/mscae/Azure_Pipelines.svg;hachureGap=4;jiggle=2;curveFitting=1;fontFamily=Architects Daughter;fontSource=https%3A%2F%2Ffonts.googleapis.com%2Fcss%3Ffamily%3DArchitects%2BDaughter;fontColor=default;labelBackgroundColor=default;" vertex="1" parent="1">
          <mxGeometry x="930" y="990" width="50" height="50" as="geometry" />
        </mxCell>
      </root>
    </mxGraphModel>
  </diagram>
</mxfile>
